<svg xmlns="http://www.w3.org/2000/svg" viewBox="0 0 26.84 26.84"><defs><style>.cls-1{fill:#4883ff;}.cls-2{fill:#fff;}.cls-3{fill:#dcff48;}</style></defs><title>Recurso 8</title><g id="Capa_2" data-name="Capa 2"><g id="Capa_1-2" data-name="Capa 1"><circle class="cls-1" cx="13.42" cy="13.42" r="10.51"/><path class="cls-2" d="M14,15.31a1.74,1.74,0,0,1-.2.84,1.7,1.7,0,0,1-.52.61,2.55,2.55,0,0,1-.78.37,3.26,3.26,0,0,1-.95.13H7.91V9.69H12a1.52,1.52,0,0,1,.71.17,1.7,1.7,0,0,1,.55.44,2,2,0,0,1,.34.62,2,2,0,0,1-.15,1.74,1.78,1.78,0,0,1-.81.72,2,2,0,0,1,1,.69A2,2,0,0,1,14,15.31ZM9.38,11v1.91h2A.86.86,0,0,0,12,12.6a.93.93,0,0,0,.27-.7,1,1,0,0,0-.24-.7.79.79,0,0,0-.6-.25ZM12.52,15a1.07,1.07,0,0,0-.07-.39.92.92,0,0,0-.18-.32A.74.74,0,0,0,12,14.1a.69.69,0,0,0-.35-.08H9.38v2h2.18a.93.93,0,0,0,.69-.28,1.1,1.1,0,0,0,.2-.31A1,1,0,0,0,12.52,15Z"/><path class="cls-2" d="M17.19,17.26A2.94,2.94,0,0,1,16,17a2.69,2.69,0,0,1-1.48-1.5,2.89,2.89,0,0,1-.2-1.06,3,3,0,0,1,.2-1.09A2.63,2.63,0,0,1,16,11.88a3,3,0,0,1,1.19-.23,3,3,0,0,1,1.19.23A2.8,2.8,0,0,1,20,14.69a.56.56,0,0,1,0,.2H15.81a1.59,1.59,0,0,0,.15.57,1.56,1.56,0,0,0,.32.43,1.43,1.43,0,0,0,.45.26,1.3,1.3,0,0,0,.52.1,1.68,1.68,0,0,0,.78-.2,1.13,1.13,0,0,0,.5-.54l1.18.33a2.33,2.33,0,0,1-.95,1A2.93,2.93,0,0,1,17.19,17.26ZM18.6,14a1.48,1.48,0,0,0-.45-1,1.37,1.37,0,0,0-1-.37,1.3,1.3,0,0,0-.52.1,1.73,1.73,0,0,0-.43.27,1.5,1.5,0,0,0-.3.43,1.39,1.39,0,0,0-.14.54Z"/><path class="cls-2" d="M15.37,10.05H19V11H15.37Z"/><path class="cls-3" d="M13.42,26.84A13.45,13.45,0,0,1,7,25.2a13.25,13.25,0,0,1-3.67-2.95,13.24,13.24,0,0,1-3-5.89A13.12,13.12,0,0,1,0,13.42,13.4,13.4,0,0,1,.86,8.69,12.65,12.65,0,0,1,2,6.33,13.25,13.25,0,0,1,3.1,4.84c.25-.29.51-.59.79-.87l.52-.49A13.15,13.15,0,0,1,7.06,1.6c.24-.13.52-.27.86-.43a13.49,13.49,0,0,1,11.87.43A13.72,13.72,0,0,1,23,4a14.13,14.13,0,0,1,1.87,2.37A13.6,13.6,0,0,1,26,8.69a13.4,13.4,0,0,1,.53,7.68,13,13,0,0,1-1,2.94,13.44,13.44,0,0,1-5.62,5.89A13.49,13.49,0,0,1,13.42,26.84Zm0-23.93a10.45,10.45,0,0,0-4.3.92l-.67.33A10.85,10.85,0,0,0,6.37,5.63L6,6q-.33.35-.63.69A10.1,10.1,0,0,0,4.5,7.87a11,11,0,0,0-.92,1.85,11.43,11.43,0,0,0-.5,1.84,10.64,10.64,0,0,0-.17,1.86,10.4,10.4,0,0,0,.26,2.3A10.56,10.56,0,0,0,4,18a10.77,10.77,0,0,0,1.53,2.31,10.52,10.52,0,0,0,15.82,0,10.32,10.32,0,0,0,2.34-4.61,10.56,10.56,0,0,0,.26-2.31,10.44,10.44,0,0,0-.17-1.85,10.76,10.76,0,0,0-.5-1.85,10.25,10.25,0,0,0-.91-1.85,10.56,10.56,0,0,0-8.93-5Z"/></g></g></svg>
