<svg xmlns="http://www.w3.org/2000/svg" viewBox="0 0 26.84 26.84"><defs><style>.cls-1{fill:#dcff48;}.cls-2{fill:#4883ff;}.cls-3{fill:#fff;}</style></defs><title>Recurso 4</title><g id="Capa_2" data-name="Capa 2"><g id="Capa_1-2" data-name="Capa 1"><path class="cls-1" d="M13.42,26.84A13.45,13.45,0,0,1,7,25.2a13.25,13.25,0,0,1-3.67-2.95,13.24,13.24,0,0,1-3-5.89A13.12,13.12,0,0,1,0,13.42,13.4,13.4,0,0,1,.86,8.69,12.65,12.65,0,0,1,2,6.33,13.25,13.25,0,0,1,3.1,4.84c.25-.29.51-.59.79-.87l.52-.49A13.15,13.15,0,0,1,7.06,1.6c.24-.13.52-.27.86-.43a13.49,13.49,0,0,1,11.87.43A13.72,13.72,0,0,1,23,4a14.13,14.13,0,0,1,1.87,2.37A13.6,13.6,0,0,1,26,8.69a13.4,13.4,0,0,1,.53,7.68,13,13,0,0,1-1,2.94,13.44,13.44,0,0,1-5.62,5.89A13.49,13.49,0,0,1,13.42,26.84Zm0-23.93a10.45,10.45,0,0,0-4.3.92l-.67.33A10.85,10.85,0,0,0,6.37,5.63L6,6q-.33.35-.63.69A10.1,10.1,0,0,0,4.5,7.87a11,11,0,0,0-.92,1.85,11.43,11.43,0,0,0-.5,1.84,10.64,10.64,0,0,0-.17,1.86,10.4,10.4,0,0,0,.26,2.3A10.56,10.56,0,0,0,4,18a10.77,10.77,0,0,0,1.53,2.31,10.52,10.52,0,0,0,15.82,0,10.32,10.32,0,0,0,2.34-4.61,10.56,10.56,0,0,0,.26-2.31,10.44,10.44,0,0,0-.17-1.85,10.76,10.76,0,0,0-.5-1.85,10.25,10.25,0,0,0-.91-1.85,10.56,10.56,0,0,0-8.93-5Z"/><path class="cls-2" d="M23.93,13.42A10.51,10.51,0,1,0,11.78,23.8V16.46H9.11v-3h2.67V11.11c0-2.64,1.57-4.09,4-4.09a16.51,16.51,0,0,1,2.35.2V9.81H16.77a1.52,1.52,0,0,0-1.71,1.64v2H18l-.47,3H15.06V23.8A10.51,10.51,0,0,0,23.93,13.42Z"/><path class="cls-3" d="M17.51,16.46l.47-3H15.06v-2a1.52,1.52,0,0,1,1.71-1.64H18.1V7.22A16.51,16.51,0,0,0,15.75,7c-2.4,0-4,1.45-4,4.09v2.31H9.11v3h2.67V23.8a10.41,10.41,0,0,0,3.28,0V16.46Z"/></g></g></svg>
