<svg xmlns="http://www.w3.org/2000/svg" viewBox="0 0 529.44 31.76"><defs><style>.cls-1{fill:none;stroke:#d8d8d8;stroke-linecap:round;stroke-miterlimit:10;stroke-width:2px;}</style></defs><title>Recurso 9</title><g id="Capa_2" data-name="Capa 2"><g id="Capa_1-2" data-name="Capa 1"><path class="cls-1" d="M47.09,11.68c-2.86,1.19-4.7,8.4-8,8.4s-5.14-7.21-8-8.4"/><path class="cls-1" d="M77.18,11.68c-2.87,1.19-4.71,8.4-8,8.4s-5.13-7.21-8-8.4"/><path class="cls-1" d="M17,11.68c-2.87,1.19-4.71,8.4-8,8.4s-5.13-7.21-8-8.4"/><path class="cls-1" d="M107.26,11.68c-2.86,1.19-4.7,8.4-8,8.4s-5.14-7.21-8-8.4"/><path class="cls-1" d="M137.35,11.68c-2.87,1.19-4.71,8.4-8,8.4s-5.14-7.21-8-8.4"/><path class="cls-1" d="M167.43,11.68c-2.87,1.19-4.71,8.4-8,8.4s-5.14-7.21-8-8.4"/><path class="cls-1" d="M197.52,11.68c-2.87,1.19-4.71,8.4-8,8.4s-5.14-7.21-8-8.4"/><path class="cls-1" d="M227.6,11.68c-2.87,1.19-4.71,8.4-8,8.4s-5.14-7.21-8-8.4"/><path class="cls-1" d="M257.68,11.68c-2.86,1.19-4.7,8.4-8,8.4s-5.14-7.21-8-8.4"/><path class="cls-1" d="M287.77,11.68c-2.87,1.19-4.71,8.4-8,8.4s-5.13-7.21-8-8.4"/><path class="cls-1" d="M317.85,11.68c-2.86,1.19-4.7,8.4-8,8.4s-5.14-7.21-8-8.4"/><path class="cls-1" d="M347.94,11.68c-2.87,1.19-4.71,8.4-8,8.4s-5.13-7.21-8-8.4"/><path class="cls-1" d="M378,11.68c-2.87,1.19-4.71,8.4-8,8.4s-5.14-7.21-8-8.4"/><path class="cls-1" d="M408.11,11.68c-2.87,1.19-4.71,8.4-8,8.4s-5.14-7.21-8-8.4"/><path class="cls-1" d="M438.19,11.68c-2.87,1.19-4.71,8.4-8,8.4s-5.14-7.21-8-8.4"/><path class="cls-1" d="M468.28,11.68c-2.87,1.19-4.71,8.4-8,8.4s-5.14-7.21-8-8.4"/><path class="cls-1" d="M498.36,11.68c-2.87,1.19-4.71,8.4-8,8.4s-5.13-7.21-8-8.4"/><path class="cls-1" d="M528.44,11.68c-2.86,1.19-4.7,8.4-8,8.4s-5.14-7.21-8-8.4"/><path class="cls-1" d="M31.77,1c-2.87,1.19-4.71,8.39-8,8.39s-5.13-7.2-8-8.39"/><path class="cls-1" d="M61.85,1c-2.86,1.19-4.7,8.39-8,8.39s-5.14-7.2-8-8.39"/><path class="cls-1" d="M91.94,1c-2.87,1.19-4.71,8.39-8,8.39s-5.13-7.2-8-8.39"/><path class="cls-1" d="M122,1c-2.87,1.19-4.71,8.39-8,8.39s-5.14-7.2-8-8.39"/><path class="cls-1" d="M152.11,1c-2.87,1.19-4.71,8.39-8,8.39S139,2.19,136.1,1"/><path class="cls-1" d="M182.19,1c-2.87,1.19-4.71,8.39-8,8.39s-5.14-7.2-8-8.39"/><path class="cls-1" d="M212.27,1c-2.86,1.19-4.7,8.39-8,8.39s-5.14-7.2-8-8.39"/><path class="cls-1" d="M242.36,1c-2.87,1.19-4.71,8.39-8,8.39s-5.13-7.2-8-8.39"/><path class="cls-1" d="M272.44,1c-2.86,1.19-4.7,8.39-8,8.39s-5.14-7.2-8-8.39"/><path class="cls-1" d="M302.53,1c-2.87,1.19-4.71,8.39-8,8.39s-5.13-7.2-8-8.39"/><path class="cls-1" d="M332.61,1c-2.87,1.19-4.71,8.39-8,8.39s-5.14-7.2-8-8.39"/><path class="cls-1" d="M362.7,1c-2.87,1.19-4.71,8.39-8,8.39s-5.14-7.2-8-8.39"/><path class="cls-1" d="M392.78,1c-2.87,1.19-4.71,8.39-8,8.39s-5.14-7.2-8-8.39"/><path class="cls-1" d="M422.87,1c-2.87,1.19-4.71,8.39-8,8.39s-5.14-7.2-8-8.39"/><path class="cls-1" d="M453,1c-2.87,1.19-4.71,8.39-8,8.39s-5.14-7.2-8-8.39"/><path class="cls-1" d="M483,1c-2.86,1.19-4.7,8.39-8,8.39s-5.14-7.2-8-8.39"/><path class="cls-1" d="M513.12,1c-2.87,1.19-4.71,8.39-8,8.39s-5.13-7.2-8-8.39"/><path class="cls-1" d="M31.77,22.37c-2.87,1.19-4.71,8.39-8,8.39s-5.13-7.2-8-8.39"/><path class="cls-1" d="M61.85,22.37c-2.86,1.19-4.7,8.39-8,8.39s-5.14-7.2-8-8.39"/><path class="cls-1" d="M91.94,22.37c-2.87,1.19-4.71,8.39-8,8.39s-5.13-7.2-8-8.39"/><path class="cls-1" d="M122,22.37c-2.87,1.19-4.71,8.39-8,8.39s-5.14-7.2-8-8.39"/><path class="cls-1" d="M152.11,22.37c-2.87,1.19-4.71,8.39-8,8.39s-5.14-7.2-8-8.39"/><path class="cls-1" d="M182.19,22.37c-2.87,1.19-4.71,8.39-8,8.39s-5.14-7.2-8-8.39"/><path class="cls-1" d="M212.27,22.37c-2.86,1.19-4.7,8.39-8,8.39s-5.14-7.2-8-8.39"/><path class="cls-1" d="M242.36,22.37c-2.87,1.19-4.71,8.39-8,8.39s-5.13-7.2-8-8.39"/><path class="cls-1" d="M272.44,22.37c-2.86,1.19-4.7,8.39-8,8.39s-5.14-7.2-8-8.39"/><path class="cls-1" d="M302.53,22.37c-2.87,1.19-4.71,8.39-8,8.39s-5.13-7.2-8-8.39"/><path class="cls-1" d="M332.61,22.37c-2.87,1.19-4.71,8.39-8,8.39s-5.14-7.2-8-8.39"/><path class="cls-1" d="M362.7,22.37c-2.87,1.19-4.71,8.39-8,8.39s-5.14-7.2-8-8.39"/><path class="cls-1" d="M392.78,22.37c-2.87,1.19-4.71,8.39-8,8.39s-5.14-7.2-8-8.39"/><path class="cls-1" d="M422.87,22.37c-2.87,1.19-4.71,8.39-8,8.39s-5.14-7.2-8-8.39"/><path class="cls-1" d="M453,22.37c-2.87,1.19-4.71,8.39-8,8.39s-5.14-7.2-8-8.39"/><path class="cls-1" d="M483,22.37c-2.86,1.19-4.7,8.39-8,8.39s-5.14-7.2-8-8.39"/><path class="cls-1" d="M513.12,22.37c-2.87,1.19-4.71,8.39-8,8.39s-5.13-7.2-8-8.39"/></g></g></svg>
