<svg xmlns="http://www.w3.org/2000/svg" viewBox="0 0 529.44 31.8"><defs><style>.cls-1{fill:none;stroke:#d8d8d8;stroke-linecap:round;stroke-miterlimit:10;stroke-width:2px;}</style></defs><title>Recurso 10</title><g id="Capa_2" data-name="Capa 2"><g id="Capa_1-2" data-name="Capa 1"><path class="cls-1" d="M47.09,1c-2.86,1.18-4.7,8.37-8,8.37S34,2.18,31.08,1"/><path class="cls-1" d="M77.18,1c-2.87,1.18-4.71,8.37-8,8.37S64,2.18,61.17,1"/><path class="cls-1" d="M107.26,1c-2.86,1.18-4.7,8.37-8,8.37s-5.14-7.19-8-8.37"/><path class="cls-1" d="M137.35,1c-2.87,1.18-4.71,8.37-8,8.37s-5.14-7.19-8-8.37"/><path class="cls-1" d="M167.43,1c-2.87,1.18-4.71,8.37-8,8.37s-5.14-7.19-8-8.37"/><path class="cls-1" d="M197.52,1c-2.87,1.18-4.71,8.37-8,8.37s-5.14-7.19-8-8.37"/><path class="cls-1" d="M227.6,1c-2.87,1.18-4.71,8.37-8,8.37s-5.14-7.19-8-8.37"/><path class="cls-1" d="M257.68,1c-2.86,1.18-4.7,8.37-8,8.37s-5.14-7.19-8-8.37"/><path class="cls-1" d="M287.77,1c-2.87,1.18-4.71,8.37-8,8.37s-5.13-7.19-8-8.37"/><path class="cls-1" d="M317.85,1c-2.86,1.18-4.7,8.37-8,8.37s-5.14-7.19-8-8.37"/><path class="cls-1" d="M347.94,1c-2.87,1.18-4.71,8.37-8,8.37s-5.13-7.19-8-8.37"/><path class="cls-1" d="M378,1c-2.87,1.18-4.71,8.37-8,8.37S364.88,2.18,362,1"/><path class="cls-1" d="M408.11,1c-2.87,1.18-4.71,8.37-8,8.37S395,2.18,392.1,1"/><path class="cls-1" d="M438.19,1c-2.87,1.18-4.71,8.37-8,8.37s-5.14-7.19-8-8.37"/><path class="cls-1" d="M468.28,1c-2.87,1.18-4.71,8.37-8,8.37s-5.14-7.19-8-8.37"/><path class="cls-1" d="M498.36,1c-2.87,1.18-4.71,8.37-8,8.37s-5.13-7.19-8-8.37"/><path class="cls-1" d="M47.09,11.72c-2.86,1.18-4.7,8.36-8,8.36s-5.14-7.18-8-8.36"/><path class="cls-1" d="M77.18,11.72c-2.87,1.18-4.71,8.36-8,8.36s-5.13-7.18-8-8.36"/><path class="cls-1" d="M17,11.72c-2.87,1.18-4.71,8.36-8,8.36S3.87,12.9,1,11.72"/><path class="cls-1" d="M107.26,11.72c-2.86,1.18-4.7,8.36-8,8.36s-5.14-7.18-8-8.36"/><path class="cls-1" d="M137.35,11.72c-2.87,1.18-4.71,8.36-8,8.36s-5.14-7.18-8-8.36"/><path class="cls-1" d="M167.43,11.72c-2.87,1.18-4.71,8.36-8,8.36s-5.14-7.18-8-8.36"/><path class="cls-1" d="M197.52,11.72c-2.87,1.18-4.71,8.36-8,8.36s-5.14-7.18-8-8.36"/><path class="cls-1" d="M227.6,11.72c-2.87,1.18-4.71,8.36-8,8.36s-5.14-7.18-8-8.36"/><path class="cls-1" d="M257.68,11.72c-2.86,1.18-4.7,8.36-8,8.36s-5.14-7.18-8-8.36"/><path class="cls-1" d="M287.77,11.72c-2.87,1.18-4.71,8.36-8,8.36s-5.13-7.18-8-8.36"/><path class="cls-1" d="M317.85,11.72c-2.86,1.18-4.7,8.36-8,8.36s-5.14-7.18-8-8.36"/><path class="cls-1" d="M347.94,11.72c-2.87,1.18-4.71,8.36-8,8.36s-5.13-7.18-8-8.36"/><path class="cls-1" d="M378,11.72c-2.87,1.18-4.71,8.36-8,8.36s-5.14-7.18-8-8.36"/><path class="cls-1" d="M408.11,11.72c-2.87,1.18-4.71,8.36-8,8.36s-5.14-7.18-8-8.36"/><path class="cls-1" d="M438.19,11.72c-2.87,1.18-4.71,8.36-8,8.36s-5.14-7.18-8-8.36"/><path class="cls-1" d="M468.28,11.72c-2.87,1.18-4.71,8.36-8,8.36s-5.14-7.18-8-8.36"/><path class="cls-1" d="M498.36,11.72c-2.87,1.18-4.71,8.36-8,8.36s-5.13-7.18-8-8.36"/><path class="cls-1" d="M528.44,11.72c-2.86,1.18-4.7,8.36-8,8.36s-5.14-7.18-8-8.36"/><path class="cls-1" d="M47.09,22.43c-2.86,1.19-4.7,8.37-8,8.37s-5.14-7.18-8-8.37"/><path class="cls-1" d="M77.18,22.43c-2.87,1.19-4.71,8.37-8,8.37s-5.13-7.18-8-8.37"/><path class="cls-1" d="M17,22.43c-2.87,1.19-4.71,8.37-8,8.37s-5.13-7.18-8-8.37"/><path class="cls-1" d="M107.26,22.43c-2.86,1.19-4.7,8.37-8,8.37s-5.14-7.18-8-8.37"/><path class="cls-1" d="M137.35,22.43c-2.87,1.19-4.71,8.37-8,8.37s-5.14-7.18-8-8.37"/><path class="cls-1" d="M167.43,22.43c-2.87,1.19-4.71,8.37-8,8.37s-5.14-7.18-8-8.37"/><path class="cls-1" d="M197.52,22.43c-2.87,1.19-4.71,8.37-8,8.37s-5.14-7.18-8-8.37"/><path class="cls-1" d="M227.6,22.43c-2.87,1.19-4.71,8.37-8,8.37s-5.14-7.18-8-8.37"/><path class="cls-1" d="M257.68,22.43c-2.86,1.19-4.7,8.37-8,8.37s-5.14-7.18-8-8.37"/><path class="cls-1" d="M287.77,22.43c-2.87,1.19-4.71,8.37-8,8.37s-5.13-7.18-8-8.37"/><path class="cls-1" d="M317.85,22.43c-2.86,1.19-4.7,8.37-8,8.37s-5.14-7.18-8-8.37"/><path class="cls-1" d="M347.94,22.43c-2.87,1.19-4.71,8.37-8,8.37s-5.13-7.18-8-8.37"/><path class="cls-1" d="M378,22.43c-2.87,1.19-4.71,8.37-8,8.37s-5.14-7.18-8-8.37"/><path class="cls-1" d="M408.11,22.43c-2.87,1.19-4.71,8.37-8,8.37s-5.14-7.18-8-8.37"/><path class="cls-1" d="M438.19,22.43c-2.87,1.19-4.71,8.37-8,8.37s-5.14-7.18-8-8.37"/><path class="cls-1" d="M468.28,22.43c-2.87,1.19-4.71,8.37-8,8.37s-5.14-7.18-8-8.37"/><path class="cls-1" d="M498.36,22.43c-2.87,1.19-4.71,8.37-8,8.37s-5.13-7.18-8-8.37"/><path class="cls-1" d="M528.44,22.43c-2.86,1.19-4.7,8.37-8,8.37s-5.14-7.18-8-8.37"/></g></g></svg>