<svg xmlns="http://www.w3.org/2000/svg" viewBox="0 0 26.84 26.84"><defs><style>.cls-1{fill:#4883ff;}.cls-2{fill:#fff;}.cls-3{fill:#dcff48;}</style></defs><title>Recurso 1</title><g id="Capa_2" data-name="Capa 2"><g id="Capa_1-2" data-name="Capa 1"><circle class="cls-1" cx="13.42" cy="13.41" r="11.32"/><path class="cls-2" d="M19.75,13.42a7.75,7.75,0,0,1-.24,1.95l-.08.28-.1.26-.06.13c-.66,1.45-2,2-4.2,2.2.71.45.91,1,.91,2.52s0,1.7,0,2a1,1,0,0,0,.48.71,9.42,9.42,0,0,1-3.07.51,9.54,9.54,0,0,1-3.09-.52,1,1,0,0,0,.49-.72c0-.53,0-1.86,0-1.86a7.37,7.37,0,0,1-1,.06A2.17,2.17,0,0,1,7.6,19.53a2.58,2.58,0,0,0-1-1.26c-.26-.16-.31-.35,0-.4,1.31-.25,1.64,1.48,2.51,1.75a2.43,2.43,0,0,0,1.83-.15,2,2,0,0,1,.75-1.22c-2.22-.2-3.54-1-4.22-2.21l-.08-.13-.17-.4-.05-.14a6.49,6.49,0,0,1-.31-2.15,3.63,3.63,0,0,1,1-2.72A3.79,3.79,0,0,1,8,7.77s1-.2,2.78,1.1a9.92,9.92,0,0,1,4.86-.09c.76-.51,2.16-1.22,2.73-1a3.61,3.61,0,0,1,.2,2.52A4.38,4.38,0,0,1,19.75,13.42Z"/><path class="cls-3" d="M26.63,11.06A13.22,13.22,0,0,0,26,8.69a13.6,13.6,0,0,0-1.16-2.36A13.33,13.33,0,0,0,22.94,4,13.66,13.66,0,0,0,19.79,1.6,13.49,13.49,0,0,0,7.92,1.17c-.34.16-.62.3-.86.43A13.51,13.51,0,0,0,4.41,3.47L3.89,4c-.28.28-.54.57-.79.87A14.12,14.12,0,0,0,2,6.32,13.78,13.78,0,0,0,.85,8.69,13.69,13.69,0,0,0,0,13.42a13.23,13.23,0,0,0,1.36,5.89,13,13,0,0,0,2,2.94A13.35,13.35,0,0,0,7,25.2a13.46,13.46,0,0,0,12.88,0,13.44,13.44,0,0,0,5.62-5.89,13,13,0,0,0,1-2.94,13.36,13.36,0,0,0,.12-5.31Zm-3,4.67a8.21,8.21,0,0,1-.27,1c0,.15-.1.3-.16.44a8.81,8.81,0,0,1-.38.89,10.77,10.77,0,0,1-1.53,2.31,10.62,10.62,0,0,1-2.87,2.3,10.06,10.06,0,0,1-1.65.72,10.27,10.27,0,0,1-3.39.57A10.41,10.41,0,0,1,10,23.35a10.61,10.61,0,0,1-1.62-.71,10.46,10.46,0,0,1-2.65-2.08,9.45,9.45,0,0,1-.66-.76c-.14-.19-.27-.37-.4-.57s-.25-.39-.36-.59S4.08,18.24,4,18a5.62,5.62,0,0,1-.25-.56,9.9,9.9,0,0,1-.56-1.75,10.4,10.4,0,0,1-.26-2.3,10.64,10.64,0,0,1,.17-1.86,9.68,9.68,0,0,1,.5-1.84A9.37,9.37,0,0,1,4,8.86a3.19,3.19,0,0,1,.23-.45,6,6,0,0,1,.31-.55,3.62,3.62,0,0,1,.22-.32A2.78,2.78,0,0,1,5,7.13c.1-.15.22-.29.33-.43S5.74,6.24,6,6L6,6c.12-.13.25-.25.37-.36s.52-.44.79-.65l.39-.27a10.3,10.3,0,0,1,.9-.55L8.76,4l.17-.08.19-.09.22-.09a10.17,10.17,0,0,1,3-.77l.45,0,.66,0,.65,0c.22,0,.43,0,.64.06h0l.62.1.62.14H16l.58.17a5.89,5.89,0,0,1,.59.21,9.89,9.89,0,0,1,1.19.55A10.49,10.49,0,0,1,20.84,6l0,0,.31.33a7.79,7.79,0,0,1,.64.78,3.81,3.81,0,0,1,.29.41l.22.33c.11.18.22.36.31.54a3.19,3.19,0,0,1,.23.45,9.37,9.37,0,0,1,.38.86,10.76,10.76,0,0,1,.5,1.85,10.44,10.44,0,0,1,.17,1.85A10.56,10.56,0,0,1,23.67,15.73Z"/></g></g></svg>