<svg xmlns="http://www.w3.org/2000/svg" viewBox="0 0 26.84 26.84"><defs><style>.cls-1{fill:#dcff48;}.cls-2{fill:#4883ff;}.cls-3{fill:#fff;}</style></defs><title>Recurso 6</title><g id="Capa_2" data-name="Capa 2"><g id="Capa_1-2" data-name="Capa 1"><path class="cls-1" d="M13.42,26.84A13.45,13.45,0,0,1,7,25.2a13.25,13.25,0,0,1-3.67-2.95,13.24,13.24,0,0,1-3-5.89A13.12,13.12,0,0,1,0,13.42,13.4,13.4,0,0,1,.86,8.69,12.65,12.65,0,0,1,2,6.33,13.25,13.25,0,0,1,3.1,4.84c.25-.29.51-.59.79-.87l.52-.49A13.15,13.15,0,0,1,7.06,1.6c.24-.13.52-.27.86-.43a13.49,13.49,0,0,1,11.87.43A13.72,13.72,0,0,1,23,4a14.13,14.13,0,0,1,1.87,2.37A13.6,13.6,0,0,1,26,8.69a13.4,13.4,0,0,1,.53,7.68,13,13,0,0,1-1,2.94,13.44,13.44,0,0,1-5.62,5.89A13.49,13.49,0,0,1,13.42,26.84Zm0-23.93a10.45,10.45,0,0,0-4.3.92l-.67.33A10.85,10.85,0,0,0,6.37,5.63L6,6q-.33.35-.63.69A10.1,10.1,0,0,0,4.5,7.87a11,11,0,0,0-.92,1.85,11.43,11.43,0,0,0-.5,1.84,10.64,10.64,0,0,0-.17,1.86,10.4,10.4,0,0,0,.26,2.3A10.56,10.56,0,0,0,4,18a10.77,10.77,0,0,0,1.53,2.31,10.52,10.52,0,0,0,15.82,0,10.32,10.32,0,0,0,2.34-4.61,10.56,10.56,0,0,0,.26-2.31,10.44,10.44,0,0,0-.17-1.85,10.76,10.76,0,0,0-.5-1.85,10.25,10.25,0,0,0-.91-1.85,10.56,10.56,0,0,0-8.93-5Z"/><circle class="cls-2" cx="13.42" cy="13.42" r="10.51"/><path class="cls-3" d="M9,11.46h2V18H9Zm1-3.24A1.18,1.18,0,1,1,8.85,9.39,1.17,1.17,0,0,1,10,8.22"/><path class="cls-3" d="M12.32,11.46h1.95v.9h0a2.12,2.12,0,0,1,1.92-1.06c2.06,0,2.44,1.36,2.44,3.12V18h-2V14.82c0-.76,0-1.73-1.06-1.73s-1.21.83-1.21,1.68V18h-2Z"/></g></g></svg>