<svg xmlns="http://www.w3.org/2000/svg" viewBox="0 0 26.84 26.84"><defs><style>.cls-1{fill:#dcff48;}.cls-2{fill:#4883ff;}.cls-3{fill:#fff;}</style></defs><title>Recurso 3</title><g id="Capa_2" data-name="Capa 2"><g id="Capa_1-2" data-name="Capa 1"><path class="cls-1" d="M13.42,26.84A13.45,13.45,0,0,1,7,25.2a13.25,13.25,0,0,1-3.67-2.95,13.24,13.24,0,0,1-3-5.89A13.12,13.12,0,0,1,0,13.42,13.4,13.4,0,0,1,.86,8.69,12.65,12.65,0,0,1,2,6.33,13.25,13.25,0,0,1,3.1,4.84c.25-.29.51-.59.79-.87l.52-.49A13.15,13.15,0,0,1,7.06,1.6c.24-.13.52-.27.86-.43a13.49,13.49,0,0,1,11.87.43A13.72,13.72,0,0,1,23,4a14.13,14.13,0,0,1,1.87,2.37A13.6,13.6,0,0,1,26,8.69a13.4,13.4,0,0,1,.53,7.68,13,13,0,0,1-1,2.94,13.44,13.44,0,0,1-5.62,5.89A13.49,13.49,0,0,1,13.42,26.84Zm0-23.93a10.45,10.45,0,0,0-4.3.92l-.67.33A10.85,10.85,0,0,0,6.37,5.63L6,6q-.33.35-.63.69A10.1,10.1,0,0,0,4.5,7.87a11,11,0,0,0-.92,1.85,11.43,11.43,0,0,0-.5,1.84,10.64,10.64,0,0,0-.17,1.86,10.4,10.4,0,0,0,.26,2.3A10.56,10.56,0,0,0,4,18a10.77,10.77,0,0,0,1.53,2.31,10.52,10.52,0,0,0,15.82,0,10.32,10.32,0,0,0,2.34-4.61,10.56,10.56,0,0,0,.26-2.31,10.44,10.44,0,0,0-.17-1.85,10.76,10.76,0,0,0-.5-1.85,10.25,10.25,0,0,0-.91-1.85,10.56,10.56,0,0,0-8.93-5Z"/><circle class="cls-2" cx="13.42" cy="13.42" r="10.48"/><path class="cls-3" d="M19.21,9.83a4.27,4.27,0,0,1-1.16.33c.19,0,.46-.37.57-.5A2,2,0,0,0,19,9s0-.05,0-.06h-.06a5.72,5.72,0,0,1-1.37.53.08.08,0,0,1-.09,0l-.12-.12a2.57,2.57,0,0,0-.67-.41,2.33,2.33,0,0,0-1-.16,2.51,2.51,0,0,0-1,.27,2.55,2.55,0,0,0-.78.64,2.32,2.32,0,0,0-.46.93,2.49,2.49,0,0,0,0,1c0,.06,0,.07,0,.06a7.26,7.26,0,0,1-4.7-2.4c-.06-.06-.09-.06-.13,0A2.38,2.38,0,0,0,9,12l.29.25A2.43,2.43,0,0,1,8.34,12c-.05,0-.08,0-.08.05a1.13,1.13,0,0,0,0,.26,2.41,2.41,0,0,0,1.49,1.93,1.49,1.49,0,0,0,.3.09,2.68,2.68,0,0,1-.89,0c-.06,0-.09,0-.06.08A2.49,2.49,0,0,0,11,16a2.13,2.13,0,0,1,.25,0s0,0,0,0a3,3,0,0,1-1.28.68A4.58,4.58,0,0,1,8,17a.37.37,0,0,0-.16,0s0,.05,0,.07a4.36,4.36,0,0,0,.41.24,5.89,5.89,0,0,0,1.3.52,6.9,6.9,0,0,0,6.71-1.57,7,7,0,0,0,1.85-5.13c0-.08.09-.12.14-.16a4.6,4.6,0,0,0,.92-1,.36.36,0,0,0,.06-.18h0S19.25,9.81,19.21,9.83Z"/></g></g></svg>